<svg width="46" height="32" viewBox="0 0 46 32" fill="none" xmlns="http://www.w3.org/2000/svg">
<rect x="0.5" y="0.5" width="45" height="31" rx="5.5" fill="white"/>
<rect x="0.5" y="0.5" width="45" height="31" rx="5.5" stroke="#F2F4F7"/>
<path d="M28 25V23C28 21.9391 27.5786 20.9217 26.8284 20.1716C26.0783 19.4214 25.0609 19 24 19H16C14.9391 19 13.9217 19.4214 13.1716 20.1716C12.4214 20.9217 12 21.9391 12 23V25M34 25V23C33.9993 22.1137 33.7044 21.2528 33.1614 20.5523C32.6184 19.8519 31.8581 19.3516 31 19.13M27 7.13C27.8604 7.3503 28.623 7.8507 29.1676 8.55231C29.7122 9.25392 30.0078 10.1168 30.0078 11.005C30.0078 11.8932 29.7122 12.7561 29.1676 13.4577C28.623 14.1593 27.8604 14.6597 27 14.88M24 11C24 13.2091 22.2091 15 20 15C17.7909 15 16 13.2091 16 11C16 8.79086 17.7909 7 20 7C22.2091 7 24 8.79086 24 11Z" stroke="#667085" stroke-width="2" stroke-linecap="round" stroke-linejoin="round"/>
</svg>
